<svg xmlns="http://www.w3.org/2000/svg" width="1495" height="1343" viewBox="0 0 1495 1343">
  <defs>
    <style>
      .cls-1 {
        fill: #939393;
        fill-rule: evenodd;
      }
    </style>
  </defs>
  <path class="cls-1" d="M1365.97,672.384c-0.5,343.826-278.58,621.546-622.384,621.576-344.163.02-621.938-278.92-621.559-624.171C122.407,328.765,401.919,49.518,742.4,50.015,1087.98,50.518,1366.47,328.464,1365.97,672.384Zm-76.95-.161c0.17-297.734-243.88-544.372-539.227-544.946-306.085-.6-550.848,242.106-551.154,546.513-0.3,297.846,245.179,542.53,545.127,543.35C1043,1217.97,1288.85,972.272,1289.02,672.223ZM705,454.074q0-100.648,0-201.292c0-5.064-.339-10.142-0.041-15.185,1.4-23.915,17.834-40.751,39.317-40.485s38.335,17.417,38.572,41.163c0.5,50.635.183,101.276,0.183,151.917,0,83.558-.4,167.116.506,250.667,0.1,9.254,5.395,20.6,12.006,27.314,69.732,70.821,140.26,140.851,210.482,211.2,20.3,20.354,21.96,43.233,4.75,60.07-16.72,16.374-39.13,14.968-58.815-4.666-77.542-77.347-155.23-154.547-231.761-232.887-8.625-8.834-14.184-24.446-14.433-37.043-1.366-70.233-.656-140.509-0.656-210.77H705Z"/>
</svg>
