<?xml version="1.0" encoding="utf-8"?>
<!-- Generator: Adobe Illustrator 23.0.1, SVG Export Plug-In . SVG Version: 6.00 Build 0)  -->
<svg version="1.1" id="Layer_1" xmlns="http://www.w3.org/2000/svg" xmlns:xlink="http://www.w3.org/1999/xlink" x="0px" y="0px"
	 viewBox="0 0 512 512" style="enable-background:new 0 0 512 512;" xml:space="preserve">
<style type="text/css">
	.st0{fill:#979797;}
</style>
<path class="st0" d="M431.9,277.2c0,40.9,0,81.8,0,122.7c0,7,0,14.1-0.8,21c-1.6,14.9-19.9,22.4-31.6,14c-3.9-2.8-7.5-6.2-10.9-9.6
	c-21.3-21.1-42.5-42.3-63.7-63.5c-5.6-5.5-12.2-8.2-20.1-8.2c-56.3-0.1-112.5-0.1-168.8-0.4C111,353.1,89.2,344.6,72,326
	c-13.1-14.1-20.3-31-21.8-50c-1-12.1-0.7-24.2-0.7-36.4c-0.1-32.7-0.2-65.4,0.1-98c0.3-24.6,8.7-46.1,26.9-63.2
	c13.5-12.6,29.7-19.9,48-21.5c14.1-1.2,28.4-1.1,42.6-1.1c58.6-0.1,117.2,0,175.8,0.1c17.6,0,34.3,3.5,49.4,12.8
	c21.2,13.1,33.4,32.3,37.9,56.5c1.3,7.1,1.8,14.5,1.8,21.7C432,190.3,431.9,233.7,431.9,277.2C431.9,277.2,431.9,277.2,431.9,277.2z
	 M385.6,365.1c2.9,3.8,3.7,3.8,3.7-5.9c-0.1-67.3-0.1-134.5-0.1-201.8c0-7.9,0.2-15.8-0.7-23.6c-2.5-20.7-19.7-35.9-40.5-36
	c-71.6-0.1-143.2-0.1-214.8,0c-19.9,0-36.5,13.8-40,33.4c-1.2,6.9-1.1,14.1-1.1,21.2c-0.1,38.7-0.2,77.5,0,116.2
	c0.1,16.6,7.4,29.5,22.3,37.5c7,3.7,14.6,4.9,22.4,4.9c39.3,0,78.5,0,117.8,0c8.8,0,17.7,0,26.5-0.2c9.9-0.2,19.8-0.9,29.6-0.6
	c6.1,0.2,12.2,1.3,18.1,2.9c10.1,2.7,18,9.2,25,16.6C364.8,341.3,376.4,352.1,385.6,365.1z"/>
<path class="st0" d="M225.3,209.6c-0.1,15.2-12.1,27.2-27.3,27.1c-14.7-0.1-26.7-12.3-26.7-27.2c0-15.1,12.3-27.3,27.3-27.3
	C213.4,182.3,225.4,194.5,225.3,209.6z"/>
<path class="st0" d="M316.9,209.4c0,15.1-11.9,27.2-26.9,27.2c-15,0-27.2-12.2-27.1-27.3c0.1-15,12.3-27.2,27.1-27.2
	C304.8,182.2,316.9,194.4,316.9,209.4z"/>
</svg>
