<?xml version="1.0" encoding="utf-8"?>
<!-- Generator: Adobe Illustrator 23.0.1, SVG Export Plug-In . SVG Version: 6.00 Build 0)  -->
<svg version="1.1" id="Layer_1" xmlns="http://www.w3.org/2000/svg" xmlns:xlink="http://www.w3.org/1999/xlink" x="0px" y="0px"
	 viewBox="0 0 512 512" style="enable-background:new 0 0 512 512;" xml:space="preserve">
<style type="text/css">
	.st0{fill:#979797;}
</style>
<path class="st0" d="M258.9,93.9c2-2.2,3.8-4.2,5.7-6.2c21.4-22.1,47.3-35.9,77.9-39.9c63.2-8.3,119.3,31.5,134.1,92
	c8,32.7,3.2,64.1-10.4,94.5c-11,24.7-26.7,46.4-43.9,67c-22.4,26.8-47.1,51.4-72.5,75.3c-29.5,27.8-59.3,55.4-88.9,83
	c-0.5,0.5-1.1,1-1.8,1.5c-0.5-0.3-1-0.6-1.4-1c-42-39-84.7-77.3-124.9-118.3c-22.7-23.1-44.3-47.1-62.3-74.1
	C56.9,247.7,46,226.2,41,202.1c-8.5-40.8-1.8-78.5,24.9-111.3c20.4-25.2,47.3-39.8,79.6-43.1c44.4-4.5,81.3,11.3,111.4,43.8
	C257.5,92.3,258.1,93.1,258.9,93.9z M259,400.6c15.5-14.4,30.8-28.6,46-42.9c26-24.4,51.7-49,75.3-75.8
	c14.9-16.9,28.9-34.6,39.8-54.5c10.9-20.1,17.9-41.1,15.7-64.4c-1.9-20.2-9.6-37.8-24.8-51.4c-19-17.1-41.7-23-66.5-18.4
	c-29.5,5.5-51.3,22-63.9,49.7c-0.8,1.8-1.7,2.3-3.6,2.3c-10.2-0.1-20.5-0.4-30.7,0.1c-5.7,0.3-8.3-1.5-11.1-6.8
	c-16.8-30.9-43.3-46.9-78.4-46.5c-29.1,0.3-51.3,14-65.5,39.5c-10,18.1-11.8,37.7-7.8,57.9c3.6,18.6,11.9,35.2,22.1,51
	c14.9,23,32.7,43.7,52.1,63c26.8,26.6,54.2,52.4,81.4,78.6C245.6,388.3,252.2,394.3,259,400.6z"/>
</svg>
