<?xml version="1.0" encoding="utf-8"?>
<!-- Generator: Adobe Illustrator 23.0.1, SVG Export Plug-In . SVG Version: 6.00 Build 0)  -->
<svg version="1.1" id="Layer_1" xmlns="http://www.w3.org/2000/svg" xmlns:xlink="http://www.w3.org/1999/xlink" x="0px" y="0px"
	 viewBox="0 0 1495 1343" style="enable-background:new 0 0 1495 1343;" xml:space="preserve">
<style type="text/css">
	.st0{fill-rule:evenodd;clip-rule:evenodd;fill:#C3C3C3;}
	.st1{fill:#C3C3C3;}
</style>
<path class="st0" d="M213.2,574.1c-14.2,9-14.2,9-16.4,10c-42.4,22.5-88.7,81.2-133.3,11.3c-39.3-61.5,23.5-88,60.6-116.1
	C300.1,346.3,478.3,215.9,654.8,83.4c63.9-48,123.1-46.8,187,1.3C1022.1,220.8,1204.3,354.4,1385,490
	c34.9,26.2,82.5,53.7,45.6,107.1c-40.5,58.6-81.3,20.5-120.2-7.6c-5.7-4.1,0,0-43.8-31.6c0,109.4,3.2,228.3,0,329.5
	c-10.5,326.8-78,394.4-405.6,399.1c-128.9,1.8-258.2-2.4-386.7-11.9c-136.3-10.1-226.1-102.4-236.8-239.7
	C228.2,915,226.7,794.3,221.2,674C219.7,643.5,215.9,604.2,213.2,574.1z M747.1,170C617.3,264.8,489.5,356.6,364,451.4
	c-15.4,11.6-26.9,39.3-26.3,59.1c5.1,167.6,10.9,335.4,21.9,502.7c6.1,93.5,49.8,137.8,146.6,141.4c157.8,5.9,316.2,7.2,474,1
	c111-4.3,150.1-47.8,156.7-157.5c9.6-159.6,7.8-329.4,11.5-489.2c0.6-24.3-9.7-50.1-28.3-64.2C997.1,351.1,875.8,263.5,747.1,170
	L747.1,170z"/>
<path id="Rounded_Rectangle_2" class="st1" d="M718.5,855.4h73.9c26.5,0,48,21.5,48,48v96.8c0,26.5-21.5,48-48,48h-73.9
	c-26.5,0-48-21.5-48-48v-96.8C670.5,876.9,692,855.4,718.5,855.4z"/>
</svg>
