<?xml version="1.0" encoding="utf-8"?>
<!-- Generator: Adobe Illustrator 23.0.1, SVG Export Plug-In . SVG Version: 6.00 Build 0)  -->
<svg version="1.1" id="Layer_1" xmlns="http://www.w3.org/2000/svg" xmlns:xlink="http://www.w3.org/1999/xlink" x="0px" y="0px"
	 viewBox="0 0 512 512" style="enable-background:new 0 0 512 512;" xml:space="preserve">
<style type="text/css">
	.st0{fill:#0D0E0F;}
</style>
<path id="Rounded_Rectangle_1" class="st0" d="M77.5,111h369c13.5,0,24.5,11,24.5,24.5l0,0c0,13.5-11,24.5-24.5,24.5h-369
	C64,160,53,149,53,135.5l0,0C53,122,64,111,77.5,111z"/>
<path id="Rounded_Rectangle_1_copy" class="st0" d="M77.5,235h275c13.5,0,24.5,11,24.5,24.5l0,0c0,13.5-11,24.5-24.5,24.5h-275
	C64,284,53,273,53,259.5l0,0C53,246,64,235,77.5,235z"/>
<path id="Rounded_Rectangle_1_copy_2" class="st0" d="M77.5,362h369c13.5,0,24.5,11,24.5,24.5l0,0c0,13.5-11,24.5-24.5,24.5h-369
	C64,411,53,400,53,386.5l0,0C53,373,64,362,77.5,362z"/>
</svg>
