<?xml version="1.0" encoding="utf-8"?>
<!-- Generator: Adobe Illustrator 23.0.1, SVG Export Plug-In . SVG Version: 6.00 Build 0)  -->
<svg version="1.1" id="Layer_1" xmlns="http://www.w3.org/2000/svg" xmlns:xlink="http://www.w3.org/1999/xlink" x="0px" y="0px"
	 viewBox="0 0 512 512" style="enable-background:new 0 0 512 512;" xml:space="preserve">
<g>
	<path d="M465.5,318.5c0,5,0,10,0,15c-1.2,4.5-2.2,9-3.7,13.4c-9.8,28.3-36.7,46.5-68.4,46.5c-89,0.1-177.9,0-266.9,0.1
		c-3.5,0-7,0-10.5-0.1c-31-1.3-55.4-18.5-65.1-46c-1.8-5.1-2.9-10.5-4.3-15.8c0-5,0-10,0-15c0.3-0.8,0.7-1.5,0.8-2.3
		c2.6-16.6,10.9-30,23.8-40.3c14.6-11.6,19.9-26.5,19.2-44.7c-0.7-17.8-0.9-35.6,0.2-53.4c4.5-69.5,55.6-129.4,123.5-145.4
		c9-2.1,18.3-3.3,27.4-5c7.1-0.8,14.2-0.8,21.6,0c1.5,0.3,5.3,0.7,6.8,0.9c48.4,5.1,88.2,26.2,118.4,64.5
		c22.5,28.5,32.1,61.7,33.1,97.5c0.5,18.3,0.4,36.6,0.4,54.9c0,8.3,2.9,15.2,8.8,21c5.2,5.1,10.4,10.3,15.5,15.6
		c8,8.3,14.1,17.7,17.1,28.9C464,312.1,464.7,315.3,465.5,318.5z M256.3,348.6C256.3,348.6,256.3,348.6,256.3,348.6
		c36.5,0.1,73,0.1,109.5,0c9.7,0,19.3,0.1,29-0.2c10.9-0.4,18.6-6.2,22-15.8c3.6-10.2,0.9-18.7-7-25.7c-6.2-5.5-12.6-10.9-19.1-16.1
		c-6.7-5.4-11.7-12.1-13.2-20.6c-1.2-6.5-1.6-13.2-1.7-19.8c-0.3-20,0.2-40-0.5-59.9c-0.6-18.5-3.7-36.7-12.1-53.7
		c-23-46.9-76-74.3-127.5-65c-44.2,7.9-75.9,32.3-91.9,74.7c-10.1,26.9-10.3,55.3-7.8,83.4c2.9,31.8-3.2,58.4-32.7,76.1
		c-7.8,4.7-11.1,13.2-9.4,22.7c1.8,10,8.2,16.3,17.9,18.6c4.5,1.1,9.2,1.2,13.9,1.2C169.4,348.6,212.8,348.6,256.3,348.6z"/>
	<path d="M249.5,486.5c-6.3-1.3-12.7-2.3-18.9-3.9c-15.8-4-29.5-12-41.2-23.3c-1.9-1.8-3.7-3.9-5.2-6c-6.1-8.8-6.1-18.1-0.1-25.9
		c6.4-8.3,16.1-11.4,25.8-7.7c4.1,1.6,8.1,4,11.5,6.7c24,19,44.9,19.1,69.1,0c2.7-2.1,5.7-4.2,8.8-5.6c10.6-5.1,21.1-2.7,28.2,6.2
		c6.7,8.3,6.6,18.6-1,27.9c-9.4,11.4-21.4,19.6-35.2,24.6c-8.7,3.1-17.9,4.8-26.8,7.1C259.5,486.5,254.5,486.5,249.5,486.5z"/>
</g>
</svg>
