<?xml version="1.0" encoding="utf-8"?>
<!-- Generator: Adobe Illustrator 23.0.1, SVG Export Plug-In . SVG Version: 6.00 Build 0)  -->
<svg version="1.1" id="Layer_1" xmlns="http://www.w3.org/2000/svg" xmlns:xlink="http://www.w3.org/1999/xlink" x="0px" y="0px"
	 viewBox="0 0 1495 1343" style="enable-background:new 0 0 1495 1343;" xml:space="preserve">
<style type="text/css">
	.st0{fill-rule:evenodd;clip-rule:evenodd;fill:#C3C3C3;}
</style>
<path class="st0" d="M747.5,105C434.6,105,181,358.6,181,671.5S434.6,1238,747.5,1238S1314,984.4,1314,671.5S1060.4,105,747.5,105z
	 M924.3,712.2c-34.4,47.3-81.2,76.5-139.4,85.6c-12.1,1.9-24.5,3.6-37,2.6c-4.4-0.3-5.4-1.6-6-5.9c-4.3-28.2-9.1-56.2-13.7-84.4
	c-3.7-22.8-7.7-45.5-10.9-68.3c-0.5-3.9-4.1-7.5-1.3-12.2c7.5,2.4,14.5,6.4,22.4,8.5c25.1,6.8,53.7-12.6,61.5-32.9
	c14-36.2-1.3-70.7-38.7-80.1c-33-8.4-64.7,7.4-71.6,43.3c-3.8,19.9,0.4,38.8,3,57.9c3.2,24.2,7.9,48.2,11.9,72.3
	c4.4,26.8,8.8,53.6,13.2,80.3c3.9,23.8,7.8,47.5,11.8,71.3c4.6,27.4,9.2,54.8,14.1,82.2c0.8,4.3-0.4,8.7,2.1,13.1
	c1.9,3.4-0.7,6.3-5.1,7c-34.9,5.5-69.7,11.1-104.5,16.7c-15.7,2.5-31.4,5.2-47,7.8c-5.2-30.5-10.3-60.2-15.2-90
	c-4.4-26.8-8.6-53.6-13-80.4c-4.6-28.1-9.5-56.2-14.1-84.3c-4.3-26.1-8.8-52.2-12.8-78.3c-3.3-21.6-6.9-43.3-6.2-65.2
	c1.6-48,14.2-92.8,45.1-130.3c33.7-40.8,76.8-67.3,129.4-77c50.7-9.4,100-5.9,146.4,18.2c62.1,32.3,101.1,82.2,114.4,151.9
	C975.1,604.2,961.4,661.1,924.3,712.2z"/>
</svg>
