<?xml version="1.0" encoding="utf-8"?>
<!-- Generator: Adobe Illustrator 23.0.1, SVG Export Plug-In . SVG Version: 6.00 Build 0)  -->
<svg version="1.1" id="Layer_1" xmlns="http://www.w3.org/2000/svg" xmlns:xlink="http://www.w3.org/1999/xlink" x="0px" y="0px"
	 viewBox="0 0 512 512" style="enable-background:new 0 0 512 512;" xml:space="preserve">
<path d="M213,15.5c9,0,18,0,27,0c8.4,1.3,16.8,2.3,25.1,3.9c142.1,27.6,207.9,194.8,122.6,311.8c-2.4,3.3-5,6.6-8.3,11
	c1.5,1,3.2,1.9,4.5,3.1c29.9,29.3,59.8,58.5,89.5,88c4.1,4.1,7.1,9.4,10.6,14.2c0,3,0,6,0,9c-2.6,8-7.9,13.4-16,16c-3,0-6,0-9,0
	c-4.6-3.2-9.6-5.9-13.6-9.8c-30.7-29.9-61.2-59.9-91.8-89.9c-0.9-0.9-2-1.7-3-2.6c-1.3,0.9-2.4,1.6-3.4,2.4
	c-43.3,32.3-91.8,45.2-145.4,38.9C119.6,401.9,50.4,339,32.9,258c-2.1-9.7-3.3-19.7-4.9-29.5c0-9.3,0-18.7,0-28
	c0.6-4.3,1.3-8.5,1.8-12.8c10.2-81.4,73-150,153.2-167.2C193,18.4,203,17.1,213,15.5z M384.8,218c2-86.5-67.1-159.2-152.5-161.6
	c-88.6-2.5-160.8,66.4-163.2,152.1c-2.6,89.1,65.9,161.7,153.5,163.8C310.3,374.4,382.8,305.4,384.8,218z"/>
</svg>
