<?xml version="1.0" encoding="utf-8"?>
<!-- Generator: Adobe Illustrator 23.0.1, SVG Export Plug-In . SVG Version: 6.00 Build 0)  -->
<svg version="1.1" id="Layer_1" xmlns="http://www.w3.org/2000/svg" xmlns:xlink="http://www.w3.org/1999/xlink" x="0px" y="0px"
	 viewBox="0 0 1495 1343" style="enable-background:new 0 0 1495 1343;" xml:space="preserve">
<style type="text/css">
	.st0{fill:#C3C3C3;stroke:#C3C3C3;stroke-width:37;stroke-miterlimit:10;}
</style>
<path class="st0" d="M678,66.6c45.2,0,90.4,0,135.6,0c40.4,12.6,58.3,42,62.5,82.3c1.7,16.6,5.4,33.1,7.5,49.7
	c1.3,10.2,5.8,15.8,16.1,19.5c21.2,7.5,41.5,17.4,62.6,25.2c5.2,1.9,13.5,1.2,18.1-1.8c19.4-12.6,37.9-26.5,56.8-39.9
	c35.2-25,71.4-23.4,102.4,6c24.8,23.5,48.9,47.7,72.4,72.5c29,30.5,31.2,66.5,7.2,101c-13.2,19-26.6,37.9-40.6,56.3
	c-5.7,7.4-6,13.5-2.1,21.9c8.9,19.4,15.9,39.6,25.2,58.8c2.9,6,10.1,12.3,16.4,13.9c17.9,4.5,36.2,8,54.6,9.5
	c39.9,3.3,66.8,22.5,79.8,60.6c0,46.4,0,92.7,0,139.1c-13.5,38.7-41.6,57.4-81.7,61c-17.8,1.6-35.6,4.7-53,9
	c-6.4,1.6-13.6,7.7-16.5,13.6c-9.6,19.7-17.9,40.1-25.5,60.6c-1.9,5.2-1.1,13.4,1.9,18c14.2,21.8,30.2,42.4,44.4,64.3
	c18.9,28.9,17.8,63.4-5.2,88.6c-26.9,29.5-55.2,57.8-84.9,84.6c-26.8,24.1-61.6,24.4-91.3,3.8c-20.5-14.2-40.3-29.3-61.1-42.9
	c-4.6-3-12.9-3.6-18.2-1.7c-20.6,7.5-41,15.8-60.7,25.3c-6,2.9-12,10.2-13.6,16.5c-4.3,16.7-7.3,34-8.8,51.2
	c-3.4,40.7-21.8,69.7-61.3,83.4c-46.4,0-92.7,0-139.1,0c-31.9-12-53.9-32.4-58.9-67.8c-3.2-22.3-6.3-44.6-11.2-66.6
	c-1.4-6.4-7.5-13.8-13.4-16.6c-19.2-9.3-39-17.3-59.1-24.5c-5.2-1.9-13.4-0.8-18.1,2.2c-18.9,12.3-36.9,25.9-55.3,38.9
	c-39,27.6-73,25.4-107.5-8c-23.3-22.5-46.2-45.5-68.7-68.7c-29-29.9-31.8-66.6-8.1-100.8c13.5-19.5,28-38.3,41-58.1
	c3-4.6,3.7-13,1.7-18.3c-7.8-21.1-16.5-41.9-26.1-62.2c-2.4-5-8.7-10.2-14.1-11.5c-19.1-4.4-38.5-8.3-57.9-10.3
	c-40.4-4.1-68-23.3-79.7-63.1c0-45.2,0-90.4,0-135.6c10.8-31,30.1-52.8,63.8-58.8c21.6-3.9,43.2-8.1,65-10.5
	c13.4-1.5,19.9-7.4,24-20.1c6.1-18.6,15.2-36.2,21.4-54.7c2.1-6.3,1.5-15.8-1.9-21.2c-12.7-20-27.3-38.7-40.8-58.3
	c-23.4-34-22-68.3,5.9-98.1c25.3-27.1,51.6-53.1,78.7-78.4c26.8-25,64.2-26.4,94.3-5.4c11.4,8,23.8,15,33.5,24.7
	c22.8,22.5,43.4,19.2,73.3,9c38.8-13.3,50.7-35.2,53-71.8C615.4,118.1,629.3,79.9,678,66.6z M412.2,1093.4c4.3-2.6,8.4-4.7,12.1-7.4
	c24.6-17.4,49.3-34.5,73.5-52.5c16.2-12.1,31.3-12.5,49.9-3.7c30.2,14.3,61.5,26.3,92.8,38c17.5,6.5,28.2,16.6,30.9,35.5
	c4.3,29.8,10,59.3,14.3,89.1c1.7,11.7,6,16.9,18.8,16.5c28.9-1,57.8-1.2,86.7-0.1c12.3,0.4,16.2-4.5,17.9-15.3
	c4.7-30.3,10.3-60.4,14.9-90.7c2.9-18.8,13.8-28.6,31.3-35.2c32.4-12,64.4-25.2,95.8-39.6c17-7.8,31.7-8.5,47,2.6
	c25.3,18.4,51.1,36,76.2,54.6c8.2,6,13.7,5.5,20.7-1.8c20.5-21.3,41.2-42.4,62.6-62.6c9.4-8.9,8.6-15.6,1.5-25.1
	c-17.6-23.7-33.9-48.3-51.4-72.1c-11.6-15.7-12.2-30.5-3.9-48.4c14.7-31.9,27.6-64.6,40.2-97.4c6.4-16.7,16.4-27.1,34.5-29.8
	c30.3-4.6,60.4-10.2,90.7-14.8c11-1.7,16-6.1,15.7-18c-0.7-28.9-0.6-57.9,0-86.8c0.2-11.4-3.9-16.9-15.2-18.6
	c-29.1-4.4-58.1-10.2-87.3-14.1c-20.2-2.7-31.6-12.8-38.7-31.9c-12-32.4-25-64.5-39.6-95.8c-8.3-17.8-8.3-32.6,3.4-48.4
	c17.9-24.2,34.9-49.1,52.7-73.3c6.5-8.9,7.4-15.2-1.6-23.6c-21.1-19.8-41.6-40.3-61.4-61.4c-8.7-9.2-15.4-9.1-25-1.8
	c-24.1,18.1-48.8,35.2-73.1,53c-14.5,10.7-28.8,11.4-45.4,4c-33.2-14.7-66.7-28.8-100.7-41.5c-17.7-6.6-28.1-16.8-31.1-35.4
	c-4.8-30.3-10.7-60.4-15.1-90.7c-1.5-10.2-5.5-14-15.5-13.9c-30.1,0.3-60.3,0.4-90.4-0.1c-10.9-0.2-15.1,3.9-16.7,14.7
	c-4.5,30.3-10.8,60.3-15.3,90.6c-2.9,19.7-14,29.6-32.2,36.3c-31.8,11.9-63.2,25.3-93.9,39.8c-18.2,8.6-33.5,8.8-50-3.6
	c-24-18.1-49.2-34.6-73.4-52.6c-8.7-6.5-14.2-6.2-21.9,1.8c-20.8,21.8-42.1,43.1-63.9,63.9c-7.5,7.2-7.7,12.5-1.7,20.6
	c18.5,25.2,36.1,51.1,54.7,76.2c11.8,15.9,11.4,30.7,3.1,48.4c-14.1,30.3-27.1,61.2-37.9,92.8c-7.1,20.6-18.4,32-40,34.9
	c-29.2,3.9-58.2,9.5-87.4,14.1c-9.5,1.5-13.7,5.5-13.5,15.9c0.7,30.1,0.7,60.2,0,90.3c-0.3,11.3,4.2,14.8,14.7,16.4
	c30.8,4.7,61.5,11,92.3,15.9c17.4,2.8,27.1,12.6,33.4,28.6c13.1,33.2,26.5,66.4,41.6,98.8c8,17.2,8,31.6-3.3,46.8
	c-18.2,24.7-35.6,50-53.6,74.8c-5.4,7.5-7.1,13.3,0.8,20.9c22.5,21.7,44.3,44.2,66.4,66.3C405.9,1089.6,409,1091.2,412.2,1093.4z"/>
<path class="st0" d="M1008.7,672.3c-0.2,143.1-117.8,260.3-261.2,260.2c-144-0.1-261.2-117.7-261-262.1
	c0.1-143.6,118.3-260.6,262.9-260.2C892.2,410.7,1008.9,528.7,1008.7,672.3z M745.6,863.8c106.3,1.5,194.1-84.9,194.8-191.8
	c0.7-105.2-85.1-191.7-191.8-193.4c-104.6-1.7-192.2,84.9-193.5,191.3C553.9,775.7,638.9,862.3,745.6,863.8z"/>
</svg>
