<?xml version="1.0" encoding="utf-8"?>
<!-- Generator: Adobe Illustrator 23.0.1, SVG Export Plug-In . SVG Version: 6.00 Build 0)  -->
<svg version="1.1" id="Layer_1" xmlns="http://www.w3.org/2000/svg" xmlns:xlink="http://www.w3.org/1999/xlink" x="0px" y="0px"
	 viewBox="0 0 1495 1343" style="enable-background:new 0 0 1495 1343;" xml:space="preserve">
<style type="text/css">
	.st0{fill:#C3C3C3;}
</style>
<path class="st0" d="M307.6,331.4c22.9,3.3,45.9,5.8,68.6,9.9c27.9,5.1,51.6,0.2,71.3-22.1c9.3-10.5,20.9-19.4,32.8-26.9
	c19.6-12.4,28.9-30.1,30.5-52.2c1.8-25.1,2.9-50.4,4.2-75.5c1.5-26.8,12.8-41.3,43.2-50.9c37.1-11.7,50-4.7,65.3,13.6
	c15.8,18.9,33,36.8,50.1,54.6c14.9,15.5,33,23.4,55.1,22.4c18.4-0.9,36.8-0.9,55.2-0.1c19.2,0.9,35.3-5.7,48.4-18.8
	c17.9-17.8,36.3-35.3,52-54.9c16.3-20.5,35.6-24.7,58.8-17.5c10.4,3.3,20.6,8,30,13.5c14.1,8.2,20.8,20.6,21.2,37.8
	c0.7,29.9,3.1,59.8,5.6,89.6c1.2,14.2,8.7,24.6,20.6,33.6c19.3,14.4,36.5,31.7,55.5,46.6c7.4,5.8,17.4,12.2,26,11.9
	c32.4-1.1,64.9-3.9,97.1-8c15.8-2,29.5,0.5,38,12.8c11.7,17,21.9,35.5,30,54.5c5.3,12.4,1.2,25.2-8.1,36.6
	c-17.7,21.5-34.5,43.7-51.1,66c-12,16-14.9,34.1-10.9,53.9c3.6,18,6.1,36.3,8.5,54.5c2.6,19.4,11.4,35,27.2,46.1
	c21.5,15.1,42.9,30.4,65.4,43.9c18.1,10.8,26.1,25.8,23.9,45.7c-1.5,13.4-4.5,26.9-8.9,39.6c-5.1,14.8-16.1,23.5-32.4,26.4
	c-26.8,4.9-53.5,10.9-80,17.3c-18.6,4.5-33.1,14.7-42.5,32.4c-7.6,14.4-16.2,28.3-25.6,41.6c-16.7,23.4-18.7,48.2-10.4,74.9
	c6.9,22.1,12.7,44.4,20.2,66.3c4.9,14.5,3.4,27.9-6.6,38.3c-11.4,12-24.2,23.2-38.1,32.1c-13,8.3-27.4,7.3-41.8-1
	c-24.1-13.9-48.9-26.6-73.6-39.2c-16.2-8.3-33.2-8.7-50.4-2.3c-20.2,7.5-40.4,14.9-60.8,21.7c-16,5.3-27.7,15.4-34.8,30.1
	c-12,25.1-24.1,50.2-34.2,76.1c-7.3,18.5-20,28-38.7,29.9c-11.9,1.2-24.1,1.1-36-0.3c-19.2-2.3-32.2-12.3-39.1-31.7
	c-8.9-25.2-19.6-49.8-30.3-74.3c-7.2-16.5-19.5-28.3-37-34.5c-20.3-7.2-40.4-14.9-60.4-22.7c-15.6-6.1-31.1-5.8-46,1
	c-24.8,11.4-49.7,22.6-73.7,35.6c-18.4,10-35.4,9.6-51.6-2.4c-10.8-8-20.9-17.5-29.7-27.7c-10.4-11.9-11.8-25.9-6.4-41.4
	c9.4-27.3,17.7-54.9,25.9-82.6c4.9-16.5,2-32.1-6.7-47c-10.4-17.7-20.8-35.3-30.2-53.5c-8.5-16.6-21.7-27.1-39-32
	c-25.3-7.1-50.6-14.5-76.4-19c-22.4-3.9-34.8-16.6-40-37c-3.1-12-4.1-24.8-4.4-37.3c-0.4-16.4,7.1-28.6,21.9-37.2
	c22.7-13.2,44.8-27.5,66.8-41.8c17.6-11.4,28.3-27.3,31.2-48.7c2.6-19.2,5.9-38.5,10.6-57.3c4.7-18.9,0.6-35.6-10-50.9
	c-15.2-22-30.6-44.1-47.3-64.9c-16.8-21-11.5-41.4-0.9-61.7C265.7,346.1,280.4,329.4,307.6,331.4z M753.5,962.9
	c165.6-0.2,303.1-139.5,302.6-306.4c-0.5-163.8-140.6-301.2-306.9-301c-164.4,0.2-298.6,137.7-298.4,305.8
	C451.2,824,590.8,963.1,753.5,962.9z"/>
</svg>
